<?xml version="1.0" encoding="UTF-8" standalone="no"?>
<!DOCTYPE svg PUBLIC "-//W3C//DTD SVG 1.1//EN"
 "http://www.w3.org/Graphics/SVG/1.1/DTD/svg11.dtd">
<!-- Generated by graphviz version 2.46.0 (20210118.1747)
 -->
<!-- Title: model_graph Pages: 1 -->
<svg width="703pt" height="432pt"
 viewBox="0.00 0.00 703.00 432.00" xmlns="http://www.w3.org/2000/svg" xmlns:xlink="http://www.w3.org/1999/xlink">
<g id="graph0" class="graph" transform="scale(1 1) rotate(0) translate(4 428)">
<title>model_graph</title>
<polygon fill="white" stroke="transparent" points="-4,4 -4,-428 699,-428 699,4 -4,4"/>
<g id="clust1" class="cluster">
<title>cluster_recommend_api</title>
<path fill="none" stroke="#698b22" d="M20,-8C20,-8 646,-8 646,-8 652,-8 658,-14 658,-20 658,-20 658,-404 658,-404 658,-410 652,-416 646,-416 646,-416 20,-416 20,-416 14,-416 8,-410 8,-404 8,-404 8,-20 8,-20 8,-14 14,-8 20,-8"/>
<text text-anchor="start" x="252" y="-400.5" font-family="Roboto" font-size="8.00"> &#160;&#160;&#160;&#160;&#160;&#160;&#160;&#160;&#160;</text>
<text text-anchor="start" x="275" y="-400.5" font-family="Roboto" font-size="10.00"> &#160;&#160;&#160;&#160;&#160;&#160;&#160;&#160;&#160;</text>
<text text-anchor="start" x="298" y="-400.5" font-family="Roboto" font-weight="bold" font-size="10.00">recommend_api</text>
<text text-anchor="start" x="368" y="-400.5" font-family="Roboto" font-size="10.00"> &#160;&#160;&#160;&#160;&#160;&#160;&#160;&#160;&#160;</text>
<text text-anchor="start" x="391" y="-400.5" font-family="Roboto" font-size="8.00"> &#160;&#160;&#160;&#160;&#160;&#160;&#160;&#160;&#160;</text>
</g>
<!-- recommend_api_models_Artist -->
<g id="node1" class="node">
<title>recommend_api_models_Artist</title>
<polygon fill="white" stroke="transparent" points="348,-174 348,-223 528,-223 528,-174 348,-174"/>
<polygon fill="#1b563f" stroke="transparent" points="349,-200.5 349,-221.5 527,-221.5 527,-200.5 349,-200.5"/>
<text text-anchor="start" x="405" y="-209.5" font-family="Roboto" font-size="8.00"> &#160;&#160;&#160;&#160;&#160;</text>
<text text-anchor="start" x="419" y="-209.5" font-family="Roboto" font-weight="bold" font-size="10.00" fill="white"> &#160;&#160;&#160;&#160;&#160;Artist &#160;&#160;&#160;&#160;&#160;</text>
<text text-anchor="start" x="351" y="-193.1" font-family="Roboto" font-size="8.00"> &#160;&#160;&#160;&#160;&#160;</text>
<text text-anchor="start" x="365" y="-193.1" font-family="Roboto" font-weight="bold" font-size="8.00">musicbrainz_artistid</text>
<text text-anchor="start" x="443" y="-193.1" font-family="Roboto" font-size="8.00"> &#160;&#160;&#160;&#160;&#160;</text>
<text text-anchor="start" x="461" y="-193.1" font-family="Roboto" font-size="8.00"> &#160;&#160;&#160;&#160;&#160;</text>
<text text-anchor="start" x="475" y="-193.1" font-family="Roboto" font-weight="bold" font-size="8.00">CharField</text>
<text text-anchor="start" x="511" y="-193.1" font-family="Roboto" font-size="8.00"> &#160;&#160;&#160;&#160;&#160;</text>
<text text-anchor="start" x="351" y="-180.1" font-family="Roboto" font-size="8.00"> &#160;&#160;&#160;&#160;&#160;</text>
<text text-anchor="start" x="365" y="-180.1" font-family="Roboto" font-size="8.00">name</text>
<text text-anchor="start" x="387" y="-180.1" font-family="Roboto" font-size="8.00"> &#160;&#160;&#160;&#160;&#160;</text>
<text text-anchor="start" x="461" y="-180.1" font-family="Roboto" font-size="8.00"> &#160;&#160;&#160;&#160;&#160;</text>
<text text-anchor="start" x="475" y="-180.1" font-family="Roboto" font-size="8.00">CharField</text>
<text text-anchor="start" x="511" y="-180.1" font-family="Roboto" font-size="8.00"> &#160;&#160;&#160;&#160;&#160;</text>
<polygon fill="none" stroke="black" points="348,-174 348,-223 528,-223 528,-174 348,-174"/>
</g>
<!-- recommend_api_models_Album -->
<g id="node2" class="node">
<title>recommend_api_models_Album</title>
<polygon fill="white" stroke="transparent" points="268.5,-20 268.5,-82 451.5,-82 451.5,-20 268.5,-20"/>
<polygon fill="#1b563f" stroke="transparent" points="270,-60 270,-81 451,-81 451,-60 270,-60"/>
<text text-anchor="start" x="326" y="-69" font-family="Roboto" font-size="8.00"> &#160;&#160;&#160;&#160;&#160;</text>
<text text-anchor="start" x="340" y="-69" font-family="Roboto" font-weight="bold" font-size="10.00" fill="white"> &#160;&#160;&#160;&#160;&#160;Album &#160;&#160;&#160;&#160;&#160;</text>
<text text-anchor="start" x="272" y="-52.6" font-family="Roboto" font-size="8.00"> &#160;&#160;&#160;&#160;&#160;</text>
<text text-anchor="start" x="286" y="-52.6" font-family="Roboto" font-weight="bold" font-size="8.00">musicbrainz_albumid</text>
<text text-anchor="start" x="367" y="-52.6" font-family="Roboto" font-size="8.00"> &#160;&#160;&#160;&#160;&#160;</text>
<text text-anchor="start" x="385" y="-52.6" font-family="Roboto" font-size="8.00"> &#160;&#160;&#160;&#160;&#160;</text>
<text text-anchor="start" x="399" y="-52.6" font-family="Roboto" font-weight="bold" font-size="8.00">CharField</text>
<text text-anchor="start" x="435" y="-52.6" font-family="Roboto" font-size="8.00"> &#160;&#160;&#160;&#160;&#160;</text>
<text text-anchor="start" x="272" y="-39.6" font-family="Roboto" font-size="8.00"> &#160;&#160;&#160;&#160;&#160;</text>
<text text-anchor="start" x="286" y="-39.6" font-family="Roboto" font-size="8.00" fill="#7b7b7b">date</text>
<text text-anchor="start" x="303" y="-39.6" font-family="Roboto" font-size="8.00"> &#160;&#160;&#160;&#160;&#160;</text>
<text text-anchor="start" x="385" y="-39.6" font-family="Roboto" font-size="8.00"> &#160;&#160;&#160;&#160;&#160;</text>
<text text-anchor="start" x="399" y="-39.6" font-family="Roboto" font-size="8.00" fill="#7b7b7b">DateField</text>
<text text-anchor="start" x="435" y="-39.6" font-family="Roboto" font-size="8.00"> &#160;&#160;&#160;&#160;&#160;</text>
<text text-anchor="start" x="272" y="-26.6" font-family="Roboto" font-size="8.00"> &#160;&#160;&#160;&#160;&#160;</text>
<text text-anchor="start" x="286" y="-26.6" font-family="Roboto" font-size="8.00">name</text>
<text text-anchor="start" x="308" y="-26.6" font-family="Roboto" font-size="8.00"> &#160;&#160;&#160;&#160;&#160;</text>
<text text-anchor="start" x="385" y="-26.6" font-family="Roboto" font-size="8.00"> &#160;&#160;&#160;&#160;&#160;</text>
<text text-anchor="start" x="399" y="-26.6" font-family="Roboto" font-size="8.00">CharField</text>
<text text-anchor="start" x="435" y="-26.6" font-family="Roboto" font-size="8.00"> &#160;&#160;&#160;&#160;&#160;</text>
<polygon fill="none" stroke="black" points="268.5,-20 268.5,-82 451.5,-82 451.5,-20 268.5,-20"/>
</g>
<!-- recommend_api_models_AlbumArtist -->
<g id="node3" class="node">
<title>recommend_api_models_AlbumArtist</title>
<polygon fill="white" stroke="transparent" points="395.5,-315 395.5,-377 616.5,-377 616.5,-315 395.5,-315"/>
<polygon fill="#1b563f" stroke="transparent" points="397,-355 397,-376 616,-376 616,-355 397,-355"/>
<text text-anchor="start" x="460" y="-364" font-family="Roboto" font-size="8.00"> &#160;&#160;&#160;&#160;&#160;</text>
<text text-anchor="start" x="474" y="-364" font-family="Roboto" font-weight="bold" font-size="10.00" fill="white"> &#160;&#160;&#160;&#160;&#160;AlbumArtist &#160;&#160;&#160;&#160;&#160;</text>
<text text-anchor="start" x="399" y="-347.6" font-family="Roboto" font-size="8.00"> &#160;&#160;&#160;&#160;&#160;</text>
<text text-anchor="start" x="413" y="-347.6" font-family="Roboto" font-weight="bold" font-size="8.00">id</text>
<text text-anchor="start" x="420" y="-347.6" font-family="Roboto" font-size="8.00"> &#160;&#160;&#160;&#160;&#160;</text>
<text text-anchor="start" x="455" y="-347.6" font-family="Roboto" font-size="8.00"> &#160;&#160;&#160;&#160;&#160;</text>
<text text-anchor="start" x="469" y="-347.6" font-family="Roboto" font-weight="bold" font-size="8.00">BigAutoField</text>
<text text-anchor="start" x="517" y="-347.6" font-family="Roboto" font-size="8.00"> &#160;&#160;&#160;&#160;&#160;</text>
<text text-anchor="start" x="399" y="-334.6" font-family="Roboto" font-size="8.00"> &#160;&#160;&#160;&#160;&#160;</text>
<text text-anchor="start" x="413" y="-334.6" font-family="Roboto" font-weight="bold" font-size="8.00">album</text>
<text text-anchor="start" x="437" y="-334.6" font-family="Roboto" font-size="8.00"> &#160;&#160;&#160;&#160;&#160;</text>
<text text-anchor="start" x="455" y="-334.6" font-family="Roboto" font-size="8.00"> &#160;&#160;&#160;&#160;&#160;</text>
<text text-anchor="start" x="469" y="-334.6" font-family="Roboto" font-weight="bold" font-size="8.00">ForeignKey (musicbrainz_albumid)</text>
<text text-anchor="start" x="600" y="-334.6" font-family="Roboto" font-size="8.00"> &#160;&#160;&#160;&#160;&#160;</text>
<text text-anchor="start" x="399" y="-321.6" font-family="Roboto" font-size="8.00"> &#160;&#160;&#160;&#160;&#160;</text>
<text text-anchor="start" x="413" y="-321.6" font-family="Roboto" font-weight="bold" font-size="8.00">artist</text>
<text text-anchor="start" x="434" y="-321.6" font-family="Roboto" font-size="8.00"> &#160;&#160;&#160;&#160;&#160;</text>
<text text-anchor="start" x="455" y="-321.6" font-family="Roboto" font-size="8.00"> &#160;&#160;&#160;&#160;&#160;</text>
<text text-anchor="start" x="469" y="-321.6" font-family="Roboto" font-weight="bold" font-size="8.00">ForeignKey (musicbrainz_artistid)</text>
<text text-anchor="start" x="597" y="-321.6" font-family="Roboto" font-size="8.00"> &#160;&#160;&#160;&#160;&#160;</text>
<polygon fill="none" stroke="black" points="395.5,-315 395.5,-377 616.5,-377 616.5,-315 395.5,-315"/>
</g>
<!-- recommend_api_models_AlbumArtist&#45;&gt;recommend_api_models_Artist -->
<g id="edge1" class="edge">
<title>recommend_api_models_AlbumArtist&#45;&gt;recommend_api_models_Artist</title>
<path fill="none" stroke="black" d="M486.6,-303.49C475.15,-278.98 460.97,-248.64 450.89,-227.07"/>
<ellipse fill="black" stroke="black" cx="488.36" cy="-307.26" rx="4" ry="4"/>
<text text-anchor="middle" x="517.5" y="-286.6" font-family="Roboto" font-size="8.00"> artist (albumartist)</text>
</g>
<!-- recommend_api_models_AlbumArtist&#45;&gt;recommend_api_models_Album -->
<g id="edge2" class="edge">
<title>recommend_api_models_AlbumArtist&#45;&gt;recommend_api_models_Album</title>
<path fill="none" stroke="black" d="M552.86,-304.27C555.26,-300.68 557.36,-296.91 559,-293 568.27,-270.92 693.73,-335.32 545,-131 524.55,-102.91 492.05,-84.72 459.95,-72.98"/>
<ellipse fill="black" stroke="black" cx="550.27" cy="-307.74" rx="4" ry="4"/>
<text text-anchor="middle" x="656" y="-196.6" font-family="Roboto" font-size="8.00"> album (albumartist)</text>
</g>
<!-- recommend_api_models_Track -->
<g id="node4" class="node">
<title>recommend_api_models_Track</title>
<polygon fill="white" stroke="transparent" points="24,-135 24,-262 314,-262 314,-135 24,-135"/>
<polygon fill="#1b563f" stroke="transparent" points="25,-239.5 25,-260.5 313,-260.5 313,-239.5 25,-239.5"/>
<text text-anchor="start" x="135.5" y="-248.5" font-family="Roboto" font-size="8.00"> &#160;&#160;&#160;&#160;&#160;</text>
<text text-anchor="start" x="149.5" y="-248.5" font-family="Roboto" font-weight="bold" font-size="10.00" fill="white"> &#160;&#160;&#160;&#160;&#160;Track &#160;&#160;&#160;&#160;&#160;</text>
<text text-anchor="start" x="27" y="-232.1" font-family="Roboto" font-size="8.00"> &#160;&#160;&#160;&#160;&#160;</text>
<text text-anchor="start" x="41" y="-232.1" font-family="Roboto" font-weight="bold" font-size="8.00">musicbrainz_recordingid</text>
<text text-anchor="start" x="134" y="-232.1" font-family="Roboto" font-size="8.00"> &#160;&#160;&#160;&#160;&#160;</text>
<text text-anchor="start" x="152" y="-232.1" font-family="Roboto" font-size="8.00"> &#160;&#160;&#160;&#160;&#160;</text>
<text text-anchor="start" x="166" y="-232.1" font-family="Roboto" font-weight="bold" font-size="8.00">CharField</text>
<text text-anchor="start" x="202" y="-232.1" font-family="Roboto" font-size="8.00"> &#160;&#160;&#160;&#160;&#160;</text>
<text text-anchor="start" x="27" y="-219.1" font-family="Roboto" font-size="8.00"> &#160;&#160;&#160;&#160;&#160;</text>
<text text-anchor="start" x="41" y="-219.1" font-family="Roboto" font-weight="bold" font-size="8.00" fill="#7b7b7b">album</text>
<text text-anchor="start" x="65" y="-219.1" font-family="Roboto" font-size="8.00"> &#160;&#160;&#160;&#160;&#160;</text>
<text text-anchor="start" x="152" y="-219.1" font-family="Roboto" font-size="8.00"> &#160;&#160;&#160;&#160;&#160;</text>
<text text-anchor="start" x="166" y="-219.1" font-family="Roboto" font-weight="bold" font-size="8.00" fill="#7b7b7b">ForeignKey (musicbrainz_albumid)</text>
<text text-anchor="start" x="297" y="-219.1" font-family="Roboto" font-size="8.00"> &#160;&#160;&#160;&#160;&#160;</text>
<text text-anchor="start" x="27" y="-206.1" font-family="Roboto" font-size="8.00"> &#160;&#160;&#160;&#160;&#160;</text>
<text text-anchor="start" x="41" y="-206.1" font-family="Roboto" font-size="8.00">duration</text>
<text text-anchor="start" x="72" y="-206.1" font-family="Roboto" font-size="8.00"> &#160;&#160;&#160;&#160;&#160;</text>
<text text-anchor="start" x="152" y="-206.1" font-family="Roboto" font-size="8.00"> &#160;&#160;&#160;&#160;&#160;</text>
<text text-anchor="start" x="166" y="-206.1" font-family="Roboto" font-size="8.00">FloatField</text>
<text text-anchor="start" x="203" y="-206.1" font-family="Roboto" font-size="8.00"> &#160;&#160;&#160;&#160;&#160;</text>
<text text-anchor="start" x="27" y="-193.1" font-family="Roboto" font-size="8.00"> &#160;&#160;&#160;&#160;&#160;</text>
<text text-anchor="start" x="41" y="-193.1" font-family="Roboto" font-size="8.00" fill="#7b7b7b">file_path</text>
<text text-anchor="start" x="74" y="-193.1" font-family="Roboto" font-size="8.00"> &#160;&#160;&#160;&#160;&#160;</text>
<text text-anchor="start" x="152" y="-193.1" font-family="Roboto" font-size="8.00"> &#160;&#160;&#160;&#160;&#160;</text>
<text text-anchor="start" x="166" y="-193.1" font-family="Roboto" font-size="8.00" fill="#7b7b7b">CharField</text>
<text text-anchor="start" x="202" y="-193.1" font-family="Roboto" font-size="8.00"> &#160;&#160;&#160;&#160;&#160;</text>
<text text-anchor="start" x="27" y="-180.1" font-family="Roboto" font-size="8.00"> &#160;&#160;&#160;&#160;&#160;</text>
<text text-anchor="start" x="41" y="-180.1" font-family="Roboto" font-size="8.00">genre_dortmund</text>
<text text-anchor="start" x="102" y="-180.1" font-family="Roboto" font-size="8.00"> &#160;&#160;&#160;&#160;&#160;</text>
<text text-anchor="start" x="152" y="-180.1" font-family="Roboto" font-size="8.00"> &#160;&#160;&#160;&#160;&#160;</text>
<text text-anchor="start" x="166" y="-180.1" font-family="Roboto" font-size="8.00">CharField</text>
<text text-anchor="start" x="202" y="-180.1" font-family="Roboto" font-size="8.00"> &#160;&#160;&#160;&#160;&#160;</text>
<text text-anchor="start" x="27" y="-167.1" font-family="Roboto" font-size="8.00"> &#160;&#160;&#160;&#160;&#160;</text>
<text text-anchor="start" x="41" y="-167.1" font-family="Roboto" font-size="8.00">genre_rosamerica</text>
<text text-anchor="start" x="109" y="-167.1" font-family="Roboto" font-size="8.00"> &#160;&#160;&#160;&#160;&#160;</text>
<text text-anchor="start" x="152" y="-167.1" font-family="Roboto" font-size="8.00"> &#160;&#160;&#160;&#160;&#160;</text>
<text text-anchor="start" x="166" y="-167.1" font-family="Roboto" font-size="8.00">CharField</text>
<text text-anchor="start" x="202" y="-167.1" font-family="Roboto" font-size="8.00"> &#160;&#160;&#160;&#160;&#160;</text>
<text text-anchor="start" x="27" y="-154.1" font-family="Roboto" font-size="8.00"> &#160;&#160;&#160;&#160;&#160;</text>
<text text-anchor="start" x="41" y="-154.1" font-family="Roboto" font-size="8.00">submissions</text>
<text text-anchor="start" x="90" y="-154.1" font-family="Roboto" font-size="8.00"> &#160;&#160;&#160;&#160;&#160;</text>
<text text-anchor="start" x="152" y="-154.1" font-family="Roboto" font-size="8.00"> &#160;&#160;&#160;&#160;&#160;</text>
<text text-anchor="start" x="166" y="-154.1" font-family="Roboto" font-size="8.00">IntegerField</text>
<text text-anchor="start" x="211" y="-154.1" font-family="Roboto" font-size="8.00"> &#160;&#160;&#160;&#160;&#160;</text>
<text text-anchor="start" x="27" y="-141.1" font-family="Roboto" font-size="8.00"> &#160;&#160;&#160;&#160;&#160;</text>
<text text-anchor="start" x="41" y="-141.1" font-family="Roboto" font-size="8.00">title</text>
<text text-anchor="start" x="57" y="-141.1" font-family="Roboto" font-size="8.00"> &#160;&#160;&#160;&#160;&#160;</text>
<text text-anchor="start" x="152" y="-141.1" font-family="Roboto" font-size="8.00"> &#160;&#160;&#160;&#160;&#160;</text>
<text text-anchor="start" x="166" y="-141.1" font-family="Roboto" font-size="8.00">TextField</text>
<text text-anchor="start" x="201" y="-141.1" font-family="Roboto" font-size="8.00"> &#160;&#160;&#160;&#160;&#160;</text>
<polygon fill="none" stroke="black" points="24,-135 24,-262 314,-262 314,-135 24,-135"/>
</g>
<!-- recommend_api_models_Track&#45;&gt;recommend_api_models_Album -->
<g id="edge3" class="edge">
<title>recommend_api_models_Track&#45;&gt;recommend_api_models_Album</title>
<path fill="none" stroke="black" d="M263.08,-125.83C281.25,-111.99 299.48,-98.1 315.15,-86.16"/>
<ellipse fill="black" stroke="black" cx="259.58" cy="-128.5" rx="4" ry="4"/>
<text text-anchor="middle" x="314" y="-106.6" font-family="Roboto" font-size="8.00"> album (track)</text>
</g>
<!-- recommend_api_models_TrackArtist -->
<g id="node5" class="node">
<title>recommend_api_models_TrackArtist</title>
<polygon fill="white" stroke="transparent" points="80,-315 80,-377 310,-377 310,-315 80,-315"/>
<polygon fill="#1b563f" stroke="transparent" points="81,-355 81,-376 309,-376 309,-355 81,-355"/>
<text text-anchor="start" x="149.5" y="-364" font-family="Roboto" font-size="8.00"> &#160;&#160;&#160;&#160;&#160;</text>
<text text-anchor="start" x="163.5" y="-364" font-family="Roboto" font-weight="bold" font-size="10.00" fill="white"> &#160;&#160;&#160;&#160;&#160;TrackArtist &#160;&#160;&#160;&#160;&#160;</text>
<text text-anchor="start" x="83" y="-347.6" font-family="Roboto" font-size="8.00"> &#160;&#160;&#160;&#160;&#160;</text>
<text text-anchor="start" x="97" y="-347.6" font-family="Roboto" font-weight="bold" font-size="8.00">id</text>
<text text-anchor="start" x="104" y="-347.6" font-family="Roboto" font-size="8.00"> &#160;&#160;&#160;&#160;&#160;</text>
<text text-anchor="start" x="136" y="-347.6" font-family="Roboto" font-size="8.00"> &#160;&#160;&#160;&#160;&#160;</text>
<text text-anchor="start" x="150" y="-347.6" font-family="Roboto" font-weight="bold" font-size="8.00">BigAutoField</text>
<text text-anchor="start" x="198" y="-347.6" font-family="Roboto" font-size="8.00"> &#160;&#160;&#160;&#160;&#160;</text>
<text text-anchor="start" x="83" y="-334.6" font-family="Roboto" font-size="8.00"> &#160;&#160;&#160;&#160;&#160;</text>
<text text-anchor="start" x="97" y="-334.6" font-family="Roboto" font-weight="bold" font-size="8.00">artist</text>
<text text-anchor="start" x="118" y="-334.6" font-family="Roboto" font-size="8.00"> &#160;&#160;&#160;&#160;&#160;</text>
<text text-anchor="start" x="136" y="-334.6" font-family="Roboto" font-size="8.00"> &#160;&#160;&#160;&#160;&#160;</text>
<text text-anchor="start" x="150" y="-334.6" font-family="Roboto" font-weight="bold" font-size="8.00">ForeignKey (musicbrainz_artistid)</text>
<text text-anchor="start" x="278" y="-334.6" font-family="Roboto" font-size="8.00"> &#160;&#160;&#160;&#160;&#160;</text>
<text text-anchor="start" x="83" y="-321.6" font-family="Roboto" font-size="8.00"> &#160;&#160;&#160;&#160;&#160;</text>
<text text-anchor="start" x="97" y="-321.6" font-family="Roboto" font-weight="bold" font-size="8.00">track</text>
<text text-anchor="start" x="117" y="-321.6" font-family="Roboto" font-size="8.00"> &#160;&#160;&#160;&#160;&#160;</text>
<text text-anchor="start" x="136" y="-321.6" font-family="Roboto" font-size="8.00"> &#160;&#160;&#160;&#160;&#160;</text>
<text text-anchor="start" x="150" y="-321.6" font-family="Roboto" font-weight="bold" font-size="8.00">ForeignKey (musicbrainz_recordingid)</text>
<text text-anchor="start" x="293" y="-321.6" font-family="Roboto" font-size="8.00"> &#160;&#160;&#160;&#160;&#160;</text>
<polygon fill="none" stroke="black" points="80,-315 80,-377 310,-377 310,-315 80,-315"/>
</g>
<!-- recommend_api_models_TrackArtist&#45;&gt;recommend_api_models_Artist -->
<g id="edge4" class="edge">
<title>recommend_api_models_TrackArtist&#45;&gt;recommend_api_models_Artist</title>
<path fill="none" stroke="black" d="M261.57,-306.86C283.74,-294.02 308.51,-279.52 331,-266 351.9,-253.44 374.89,-239.2 394.19,-227.14"/>
<ellipse fill="black" stroke="black" cx="257.93" cy="-308.96" rx="4" ry="4"/>
<text text-anchor="middle" x="332.5" y="-286.6" font-family="Roboto" font-size="8.00"> artist (trackartist)</text>
</g>
<!-- recommend_api_models_TrackArtist&#45;&gt;recommend_api_models_Track -->
<g id="edge5" class="edge">
<title>recommend_api_models_TrackArtist&#45;&gt;recommend_api_models_Track</title>
<path fill="none" stroke="black" d="M187.46,-302.8C185.42,-291.37 183.15,-278.71 180.93,-266.29"/>
<ellipse fill="black" stroke="black" cx="188.2" cy="-306.95" rx="4" ry="4"/>
<text text-anchor="middle" x="220" y="-286.6" font-family="Roboto" font-size="8.00"> track (trackartist)</text>
</g>
</g>
</svg>
